<svg width="44" height="44" viewBox="0 0 44 44" fill="none" xmlns="http://www.w3.org/2000/svg">
<path d="M11.8526 7L32.5046 7C33.07 7 33.5442 7.16931 33.9273 7.50794C34.3104 7.84656 34.5013 8.24162 34.5 8.69312C34.5 8.83422 34.4754 8.98264 34.4262 9.13841C34.3769 9.29418 34.3018 9.44204 34.2007 9.58201L23.8747 23.3809C23.6751 23.6349 23.4257 23.8257 23.1264 23.9532C22.8271 24.0808 22.5112 24.144 22.1786 24.1428C21.846 24.1417 21.5301 24.0785 21.2308 23.9532C20.9315 23.8279 20.6821 23.6372 20.4825 23.3809L10.1565 9.58201C10.0567 9.44092 9.98157 9.29305 9.93102 9.13841C9.88047 8.98377 9.85586 8.83534 9.85719 8.69312C9.85719 8.24162 10.0487 7.84656 10.4319 7.50794C10.815 7.16931 11.2885 7 11.8526 7Z" fill="url(#paint0_linear_94_5503)" fill-opacity="0.8"/>
<path d="M11.8526 18.7857L32.5046 18.7857C33.07 18.7857 33.5442 18.9656 33.9273 19.3254C34.3104 19.6852 34.5013 20.1049 34.5 20.5846C34.5 20.7346 34.4754 20.8923 34.4262 21.0578C34.3769 21.2233 34.3018 21.3804 34.2007 21.5291L23.8747 36.1905C23.6751 36.4603 23.4257 36.663 23.1264 36.7985C22.8271 36.934 22.5112 37.0012 22.1786 37C21.846 36.9988 21.5301 36.9316 21.2308 36.7985C20.9315 36.6654 20.6821 36.4627 20.4825 36.1905L10.1565 21.5291C10.0567 21.3792 9.98157 21.2221 9.93102 21.0578C9.88047 20.8935 9.85586 20.7358 9.85719 20.5846C9.85719 20.1049 10.0487 19.6852 10.4319 19.3254C10.815 18.9656 11.2885 18.7857 11.8526 18.7857Z" fill="url(#paint1_linear_94_5503)" fill-opacity="0.8"/>
<defs>
<linearGradient id="paint0_linear_94_5503" x1="22.1786" y1="7" x2="22.1786" y2="24.1429" gradientUnits="userSpaceOnUse">
<stop stop-color="#D9E5FB"/>
<stop offset="1" stop-color="#99BAFA"/>
</linearGradient>
<linearGradient id="paint1_linear_94_5503" x1="22.1786" y1="18.7857" x2="22.1786" y2="37" gradientUnits="userSpaceOnUse">
<stop stop-color="#D9E5FB"/>
<stop offset="1" stop-color="#99BAFA"/>
</linearGradient>
</defs>
</svg>
