<svg width="64" height="51" viewBox="0 0 64 51" fill="none" xmlns="http://www.w3.org/2000/svg">
<path d="M49.5221 0H5.92903C2.65452 0 0 2.64271 0 5.90266C0 9.16261 2.65452 11.8053 5.92903 11.8053H49.5221C52.7966 11.8053 55.4511 9.16261 55.4511 5.90266C55.4511 2.64271 52.7966 0 49.5221 0Z" fill="url(#paint0_linear_94_5485)" fill-opacity="0.8"/>
<path d="M58.0665 11.8053C61.341 11.8053 63.9956 9.16261 63.9956 5.90266C63.9956 2.64271 61.341 0 58.0665 0C54.792 0 52.1375 2.64271 52.1375 5.90266C52.1375 9.16261 54.792 11.8053 58.0665 11.8053Z" fill="#5A8DED" fill-opacity="0.8"/>
<path d="M21.9496 19.5973H58.071C61.3455 19.5973 64 22.24 64 25.5C64 28.76 61.3455 31.4027 58.071 31.4027H21.9496C18.675 31.4027 16.0205 28.76 16.0205 25.5C16.0205 22.24 18.675 19.5973 21.9496 19.5973Z" fill="url(#paint1_linear_94_5485)"/>
<path d="M5.92903 31.4027C9.20354 31.4027 11.8581 28.76 11.8581 25.5C11.8581 22.24 9.20354 19.5973 5.92903 19.5973C2.65452 19.5973 0 22.24 0 25.5C0 28.76 2.65452 31.4027 5.92903 31.4027Z" fill="#5A8DED"/>
<path d="M5.92903 39.1947H49.5221C52.7966 39.1947 55.4511 41.8374 55.4511 45.0973C55.4511 48.3573 52.7966 51 49.5221 51H5.92903C2.65452 51 0 48.3573 0 45.0973C0 41.8374 2.65452 39.1947 5.92903 39.1947Z" fill="url(#paint2_linear_94_5485)"/>
<path d="M58.0665 51C61.341 51 63.9956 48.3573 63.9956 45.0973C63.9956 41.8374 61.341 39.1947 58.0665 39.1947C54.792 39.1947 52.1375 41.8374 52.1375 45.0973C52.1375 48.3573 54.792 51 58.0665 51Z" fill="#1A60E5" fill-opacity="0.8"/>
<defs>
<linearGradient id="paint0_linear_94_5485" x1="0" y1="25.5" x2="64" y2="25.5" gradientUnits="userSpaceOnUse">
<stop stop-color="#D9E5FB"/>
<stop offset="1" stop-color="#99BAFA"/>
</linearGradient>
<linearGradient id="paint1_linear_94_5485" x1="0" y1="25.5" x2="64" y2="25.5" gradientUnits="userSpaceOnUse">
<stop stop-color="#024FE2"/>
<stop offset="1" stop-color="#5A8DED"/>
</linearGradient>
<linearGradient id="paint2_linear_94_5485" x1="0" y1="25.5" x2="64" y2="25.5" gradientUnits="userSpaceOnUse">
<stop stop-color="#0853E2"/>
<stop offset="1" stop-color="#5488EC"/>
</linearGradient>
</defs>
</svg>
