<svg width="24" height="24" viewBox="0 0 24 24" fill="none" xmlns="http://www.w3.org/2000/svg">
<path d="M12 12C10.625 12 9.44792 11.5104 8.46875 10.5312C7.48958 9.55208 7 8.375 7 7C7 5.625 7.48958 4.44792 8.46875 3.46875C9.44792 2.48958 10.625 2 12 2C13.375 2 14.5521 2.48958 15.5312 3.46875C16.5104 4.44792 17 5.625 17 7C17 8.375 16.5104 9.55208 15.5312 10.5312C14.5521 11.5104 13.375 12 12 12ZM3 22C2.44772 22 2 21.5523 2 21V18.5C2 17.7917 2.1825 17.1408 2.5475 16.5475C2.9125 15.9542 3.39667 15.5008 4 15.1875C5.29167 14.5417 6.60417 14.0575 7.9375 13.735C9.27083 13.4125 10.625 13.2508 12 13.25C13.375 13.2492 14.7292 13.4108 16.0625 13.735C17.3958 14.0592 18.7083 14.5433 20 15.1875C20.6042 15.5 21.0887 15.9533 21.4537 16.5475C21.8187 17.1417 22.0008 17.7925 22 18.5V21C22 21.5523 21.5523 22 21 22H3Z" fill="url(#paint0_linear_94_5135)" fill-opacity="0.8"/>
<defs>
<linearGradient id="paint0_linear_94_5135" x1="2" y1="12" x2="22" y2="12" gradientUnits="userSpaceOnUse">
<stop stop-color="#D9E5FB"/>
<stop offset="1" stop-color="#99BAFA"/>
</linearGradient>
</defs>
</svg>
