<svg width="24" height="24" viewBox="0 0 24 24" fill="none" xmlns="http://www.w3.org/2000/svg">
<path d="M23 21C23 21.5523 22.5523 22 22 22H2C1.44772 22 1 21.5523 1 21V3C1 2.44772 1.44772 2 2 2H2.2C2.75228 2 3.2 2.44772 3.2 3V19.5778C3.2 19.6882 3.28954 19.7778 3.4 19.7778H5.2C5.31046 19.7778 5.4 19.6882 5.4 19.5778V10.7778C5.4 10.2255 5.84772 9.77778 6.4 9.77778H8.8C9.35228 9.77778 9.8 10.2255 9.8 10.7778V19.5778C9.8 19.6882 9.88954 19.7778 10 19.7778H11.8C11.9105 19.7778 12 19.6882 12 19.5778V6.33333C12 5.78105 12.4477 5.33333 13 5.33333H15.4C15.9523 5.33333 16.4 5.78105 16.4 6.33333V19.5778C16.4 19.6882 16.4895 19.7778 16.6 19.7778H18.4C18.5105 19.7778 18.6 19.6882 18.6 19.5778V15.2222C18.6 14.6699 19.0477 14.2222 19.6 14.2222H22C22.5523 14.2222 23 14.6699 23 15.2222V21Z" fill="url(#paint0_linear_94_5131)" fill-opacity="0.8"/>
<defs>
<linearGradient id="paint0_linear_94_5131" x1="1" y1="12" x2="23" y2="12" gradientUnits="userSpaceOnUse">
<stop stop-color="#D9E5FB"/>
<stop offset="1" stop-color="#99BAFA"/>
</linearGradient>
</defs>
</svg>
