<svg width="24" height="24" viewBox="0 0 24 24" fill="none" xmlns="http://www.w3.org/2000/svg">
<path d="M3 20.7V9.40071C3 9.06792 3.07371 8.7529 3.22114 8.45564C3.36857 8.15838 3.57171 7.91355 3.83057 7.72116L10.7541 2.41989C11.1167 2.13996 11.5307 2 11.9961 2C12.4616 2 12.8781 2.13996 13.2459 2.41989L20.1694 7.71986C20.4291 7.91225 20.6323 8.15751 20.7789 8.45564C20.9263 8.7529 21 9.06792 21 9.40071V20.7C21 21.0484 20.8719 21.3522 20.6156 21.6113C20.3593 21.8704 20.0589 22 19.7143 22H15.3634C15.0686 22 14.8217 21.8995 14.6229 21.6984C14.424 21.4965 14.3246 21.2469 14.3246 20.9496V14.7501C14.3246 14.4528 14.2251 14.2037 14.0263 14.0026C13.8266 13.8007 13.5797 13.6997 13.2857 13.6997H10.7143C10.4203 13.6997 10.1739 13.8007 9.975 14.0026C9.77529 14.2037 9.67543 14.4528 9.67543 14.7501V20.9509C9.67543 21.2482 9.576 21.4973 9.37714 21.6984C9.17829 21.8995 8.93186 22 8.63786 22H4.28571C3.94114 22 3.64071 21.8704 3.38443 21.6113C3.12814 21.3522 3 21.0484 3 20.7Z" fill="url(#paint0_linear_94_5130)" fill-opacity="0.8"/>
<defs>
<linearGradient id="paint0_linear_94_5130" x1="3" y1="12" x2="21" y2="12" gradientUnits="userSpaceOnUse">
<stop stop-color="#D9E5FB"/>
<stop offset="1" stop-color="#99BAFA"/>
</linearGradient>
</defs>
</svg>
