<svg width="60" height="60" viewBox="0 0 60 60" fill="none" xmlns="http://www.w3.org/2000/svg">
<path d="M25.7838 24.6663C25.7838 22.9557 26.16 21.5198 26.8502 20.5385C27.5118 19.6012 28.5107 18.9999 30 18.9999C31.1455 18.9999 31.9849 19.3559 32.5998 19.9132C33.229 20.4825 33.6934 21.3238 33.9607 22.3997C33.9899 22.5295 34.044 22.652 34.12 22.76C34.1959 22.8679 34.292 22.9592 34.4027 23.0285C34.5135 23.0978 34.6366 23.1436 34.7648 23.1633C34.893 23.183 35.0237 23.1761 35.1493 23.1432C35.2749 23.1102 35.3928 23.0518 35.4961 22.9714C35.5994 22.8909 35.6861 22.7901 35.751 22.6747C35.8158 22.5594 35.8576 22.4319 35.8739 22.2997C35.8901 22.1676 35.8805 22.0334 35.8456 21.9051C35.5083 20.5452 34.8791 19.3105 33.8867 18.4119C32.88 17.5026 31.5723 17 30 17C27.9075 17 26.3131 17.8906 25.2739 19.3665C24.2659 20.7985 23.8378 22.6957 23.8378 24.6663V26.3329H23.0854C22.3914 26.3329 21.8141 26.3329 21.3405 26.3729C20.8476 26.4142 20.3857 26.5035 19.9485 26.7328C19.2771 27.0844 18.7312 27.6454 18.3892 28.3354C18.1661 28.7847 18.0778 29.2607 18.0389 29.7673C18 30.2527 18 30.8473 18 31.5593V37.7723C18 38.4856 18 39.0789 18.0389 39.5655C18.0778 40.0721 18.1661 40.5481 18.3892 40.9974C18.7312 41.6875 19.2771 42.2485 19.9485 42.6C20.3857 42.8293 20.8476 42.9187 21.3405 42.96C21.8141 43 22.3914 43 23.0854 43H36.9146C37.6086 43 38.1859 43 38.6595 42.96C39.1524 42.9187 39.6143 42.8293 40.0515 42.6C40.7229 42.2485 41.2688 41.6875 41.6108 40.9974C41.834 40.5481 41.9222 40.0721 41.9611 39.5655C42 39.0802 42 38.4856 42 37.7736V31.5593C42 30.8473 42 30.2527 41.9611 29.7673C41.9222 29.2607 41.834 28.7847 41.6108 28.3354C41.2694 27.6458 40.7245 27.0848 40.0541 26.7328C39.6156 26.5035 39.1537 26.4142 38.6608 26.3729C38.1872 26.3329 37.6099 26.3329 36.9159 26.3329H25.7838V24.6663Z" fill="#DBDBDB"/>
<path d="M26.8502 20.5385C27.5118 19.6012 28.5107 18.9999 30 18.9999C31.4893 18.9999 32.4895 19.5999 33.1498 20.5385C33.84 21.5198 34.2162 22.9557 34.2162 24.6663V26.3329H25.7838V24.6663C25.7838 22.9557 26.16 21.5198 26.8502 20.5385ZM36.1622 26.3329V24.6663C36.1622 22.6957 35.7341 20.7985 34.7261 19.3665C33.6882 17.8906 32.0925 17 30 17C27.9075 17 26.3131 17.8906 25.2739 19.3665C24.2659 20.7985 23.8378 22.6957 23.8378 24.6663V26.3329H23.0854C22.3914 26.3329 21.8141 26.3329 21.3405 26.3729C20.8476 26.4142 20.3857 26.5035 19.9485 26.7328C19.2771 27.0844 18.7312 27.6454 18.3892 28.3354C18.1661 28.7847 18.0778 29.2607 18.0389 29.7673C18 30.2527 18 30.8473 18 31.5593V37.7723C18 38.4856 18 39.0789 18.0389 39.5655C18.0778 40.0722 18.1661 40.5481 18.3892 40.9974C18.7312 41.6875 19.2771 42.2485 19.9485 42.6C20.3857 42.8293 20.8476 42.9187 21.3405 42.96C21.8141 43 22.3914 43 23.0854 43H36.9146C37.6086 43 38.1859 43 38.6595 42.96C39.1524 42.9187 39.6143 42.8293 40.0515 42.6C40.7229 42.2485 41.2688 41.6875 41.6108 40.9974C41.8339 40.5481 41.9222 40.0722 41.9611 39.5655C42 39.0802 42 38.4856 42 37.7736V31.5593C42 30.8473 42 30.2527 41.9611 29.7673C41.9222 29.2607 41.8339 28.7847 41.6108 28.3354C41.2694 27.6458 40.7245 27.0848 40.0541 26.7328C39.6156 26.5035 39.1537 26.4142 38.6608 26.3729C38.1872 26.3329 37.6099 26.3329 36.9159 26.3329H36.1622Z" fill="#D9D9D9"/>
</svg>
