<svg width="13" height="15" viewBox="0 0 13 15" fill="none" xmlns="http://www.w3.org/2000/svg">
<path d="M6.74001 0.5H0.5V14.5H6.74001" stroke="#8C8C8C" stroke-linecap="round"/>
<path d="M5.2998 6.75864C5.02366 6.75864 4.7998 6.98249 4.7998 7.25864C4.7998 7.53478 5.02366 7.75864 5.2998 7.75864V7.25864V6.75864ZM12.8534 7.61219C13.0486 7.41693 13.0486 7.10035 12.8534 6.90508L9.67139 3.7231C9.47613 3.52784 9.15955 3.52784 8.96429 3.7231C8.76903 3.91836 8.76903 4.23495 8.96429 4.43021L11.7927 7.25864L8.96429 10.0871C8.76903 10.2823 8.76903 10.5989 8.96429 10.7942C9.15955 10.9894 9.47613 10.9894 9.67139 10.7942L12.8534 7.61219ZM5.2998 7.25864V7.75864H12.4998V7.25864V6.75864H5.2998V7.25864Z" fill="#8C8C8C"/>
</svg>
