<svg width="92" height="92" viewBox="0 0 92 92" fill="none" xmlns="http://www.w3.org/2000/svg">
<path d="M20 -8.95562e-07C8.95431 -4.00957e-07 3.82081e-07 8.95431 8.53402e-07 20L3.92565e-06 92L72 92C83.0457 92 92 83.0457 92 72L92 -4.11958e-06L20 -8.95562e-07Z" fill="#B1C8F6"/>
<path d="M51.19 39.4097C50.9333 36.8897 48.9867 35.4215 45.8422 35.4215C42.5907 35.4215 40.7724 36.9554 40.751 39.0591C40.7296 41.36 43.0399 42.3899 45.7138 43.0035L48.4947 43.7047C53.7998 44.9537 57.7572 47.7148 57.7786 52.9958C57.7572 58.8028 53.3505 62.528 45.7994 62.5061C38.3124 62.528 33.5421 58.9781 33.3496 52.1631H39.5959C39.8098 55.3624 42.2912 56.984 45.7138 56.984C49.0937 56.984 51.2756 55.3624 51.2756 52.9958C51.2756 50.8264 49.3504 49.8184 45.9705 48.9638L42.5907 48.1311C37.3712 46.8163 34.1625 44.1429 34.1625 39.4974C34.1411 33.7342 39.1039 29.8994 45.885 29.8994C52.7516 29.8994 57.2652 33.7999 57.3507 39.4097H51.19Z" fill="#F4F4F4"/>
</svg>
