<svg width="100" height="100" viewBox="0 0 100 100" fill="none" xmlns="http://www.w3.org/2000/svg">
<path d="M20 100C8.9543 100 4.27503e-07 91.0457 9.54855e-07 80L4.77427e-06 0L80 3.20164e-06C91.0457 3.64369e-06 100 8.95431 100 20L100 100L20 100Z" fill="#024FE2"/>
<path d="M66.8047 49.4141C66.8047 60.9619 59.6514 67.5781 50.3008 67.5781C40.877 67.5781 33.748 60.9131 33.748 49.4141C33.748 37.8662 40.877 31.25 50.3008 31.25C59.6514 31.25 66.8047 37.8662 66.8047 49.4141ZM41.2188 49.4141C41.2188 56.958 44.8076 61.0596 50.3008 61.084C55.7451 61.0596 59.3584 56.958 59.334 49.4141C59.3584 41.8457 55.7451 37.7686 50.3008 37.7441C44.8076 37.7686 41.2188 41.8457 41.2188 49.4141Z" fill="#F4F4F4"/>
</svg>
