<svg width="100" height="100" viewBox="0 0 100 100" fill="none" xmlns="http://www.w3.org/2000/svg">
<path d="M20 -8.95562e-07C8.9543 -4.00957e-07 3.82081e-07 8.95431 8.53402e-07 20L4.26701e-06 100L80 100C91.0457 100 100 91.0457 100 80L100 -4.47781e-06L20 -8.95562e-07Z" fill="#024FE2"/>
<path d="M55.6417 42.8373C55.3627 40.0981 53.2468 38.5023 49.8289 38.5023C46.2946 38.5023 44.3183 40.1696 44.295 42.4562C44.2718 44.9571 46.7829 46.0766 49.6894 46.7435L52.7121 47.5057C58.4784 48.8634 62.7799 51.8645 62.8032 57.6048C62.7799 63.9167 57.9901 67.9659 49.7824 67.9421C41.6443 67.9659 36.4593 64.1073 36.25 56.6997H43.0394C43.2719 60.1772 45.9691 61.9398 49.6894 61.9398C53.3631 61.9398 55.7347 60.1772 55.7347 57.6048C55.7347 55.2468 53.6421 54.1511 49.9684 53.2222L46.2946 52.3171C40.6213 50.888 37.1336 47.9821 37.1336 42.9325C37.1103 36.6683 42.5047 32.5 49.8754 32.5C57.3391 32.5 62.2452 36.7397 62.3382 42.8373H55.6417Z" fill="#F4F4F4"/>
</svg>
