<svg width="92" height="92" viewBox="0 0 92 92" fill="none" xmlns="http://www.w3.org/2000/svg">
<path d="M20 92C8.95431 92 4.27503e-07 83.0457 9.54855e-07 72L4.39233e-06 0L72 2.88147e-06C83.0457 3.32353e-06 92 8.95431 92 20L92 92L20 92Z" fill="#B1C8F6"/>
<path d="M61.4609 45.4609C61.4609 56.085 54.8799 62.1719 46.2773 62.1719C37.6074 62.1719 31.0488 56.04 31.0488 45.4609C31.0488 34.8369 37.6074 28.75 46.2773 28.75C54.8799 28.75 61.4609 34.8369 61.4609 45.4609ZM37.9219 45.4609C37.9219 52.4014 41.2236 56.1748 46.2773 56.1973C51.2861 56.1748 54.6104 52.4014 54.5879 45.4609C54.6104 38.498 51.2861 34.7471 46.2773 34.7246C41.2236 34.7471 37.9219 38.498 37.9219 45.4609Z" fill="#F4F4F4"/>
</svg>
