<svg width="263" height="263" viewBox="0 0 263 263" fill="none" xmlns="http://www.w3.org/2000/svg">
<g clip-path="url(#clip0_344_1684)">
<rect width="263" height="263" fill="url(#paint0_linear_344_1684)"/>
<path d="M95.8779 127.404C97.7179 111.003 111.012 97.6843 127.416 95.8706C148.226 93.5386 166.03 109.163 167.326 129.166C167.403 130.488 168.569 131.498 169.917 131.498H211.407C212.858 131.498 214.05 130.306 213.998 128.855C212.547 82.656 172.897 45.9144 125.628 49.205C84.9677 52.0293 52.0557 84.9621 49.2051 125.616C45.9139 172.878 82.6613 212.521 128.868 213.998C130.319 214.05 131.511 212.858 131.511 211.407V169.924C131.511 168.577 130.5 167.436 129.179 167.333C109.146 166.037 93.5456 148.237 95.8779 127.43V127.404Z" fill="#D9E5FB"/>
<path d="M190.797 167.837H174.685C170.904 167.837 167.828 164.76 167.828 161.005V134.353C167.828 132.919 166.655 131.745 165.221 131.745H134.352C132.918 131.745 131.745 132.919 131.745 134.353V165.23C131.745 166.664 132.918 167.837 134.352 167.837H160.997C164.777 167.837 167.854 170.915 167.854 174.696V190.812C167.854 192.247 169.027 193.42 170.461 193.42H190.823C192.257 193.42 193.43 192.247 193.43 190.812V188.57V170.445C193.43 169.011 192.257 167.837 190.823 167.837H190.797Z" fill="url(#paint1_linear_344_1684)" fill-opacity="0.8"/>
</g>
<defs>
<linearGradient id="paint0_linear_344_1684" x1="8.77325" y1="263" x2="254.227" y2="-1.97561e-06" gradientUnits="userSpaceOnUse">
<stop stop-color="#024FE2"/>
<stop offset="1" stop-color="#5A8DED"/>
</linearGradient>
<linearGradient id="paint1_linear_344_1684" x1="149.183" y1="150.656" x2="192.24" y2="193.42" gradientUnits="userSpaceOnUse">
<stop stop-color="#D9E5FB"/>
<stop offset="1" stop-color="#99BAFA"/>
</linearGradient>
<clipPath id="clip0_344_1684">
<rect width="263" height="263" fill="white"/>
</clipPath>
</defs>
</svg>
