<svg width="171" height="42" viewBox="0 0 171 42" fill="none" xmlns="http://www.w3.org/2000/svg">
<path d="M14.0915 20.208C14.4483 17.0266 17.0266 14.4433 20.208 14.0915C24.2439 13.6391 27.6967 16.6698 27.948 20.5498C27.9631 20.8061 28.1892 21.0021 28.4506 21.0021H36.4971C36.7785 21.0021 37.0097 20.7709 36.9997 20.4895C36.7182 11.5283 29.0286 4.40148 19.8613 5.03977C11.9756 5.5876 5.59263 11.9756 5.03977 19.8613C4.40148 29.0286 11.5283 36.7182 20.4895 37.0047C20.7709 37.0148 21.0021 36.7836 21.0021 36.5021V28.4556C21.0021 28.1942 20.8061 27.9731 20.5498 27.953C16.6648 27.7017 13.6391 24.2489 14.0915 20.2131V20.208Z" fill="url(#paint0_linear_94_5087)"/>
<path d="M32.5003 28.051H29.3755C28.6423 28.051 28.0457 27.4541 28.0457 26.7257V21.556C28.0457 21.2778 27.8182 21.0502 27.5401 21.0502H21.5535C21.2754 21.0502 21.0479 21.2778 21.0479 21.556V27.5451C21.0479 27.8234 21.2754 28.051 21.5535 28.051H26.721C27.4541 28.051 28.0508 28.6479 28.0508 29.3813V32.5074C28.0508 32.7856 28.2783 33.0133 28.5564 33.0133H32.5053C32.7834 33.0133 33.0109 32.7856 33.0109 32.5074V32.0724V28.5568C33.0109 28.2786 32.7834 28.051 32.5053 28.051H32.5003Z" fill="url(#paint1_linear_94_5087)" fill-opacity="0.8"/>
<path d="M58 10.4388H67.1618C68.7751 10.4388 70.1476 10.6685 71.2672 11.14C72.3989 11.6116 73.2417 12.2645 73.8195 13.1108C74.3974 13.9572 74.6743 14.9486 74.6743 16.073C74.6743 16.9073 74.5058 17.6569 74.1566 18.3219C73.8075 18.9869 73.3259 19.531 72.6999 19.9783C72.0738 20.4136 71.3635 20.7159 70.5569 20.8851V21.1028C71.4478 21.139 72.2785 21.3929 73.049 21.8403C73.8195 22.2877 74.4335 22.9164 74.879 23.7144C75.3244 24.5123 75.5532 25.4312 75.5532 26.4831C75.5532 27.6922 75.2402 28.7562 74.6262 29.6872C74.0122 30.6181 73.1453 31.3436 71.9896 31.8877C70.8338 32.4196 69.4613 32.6977 67.8601 32.6977H58V10.4388ZM67.8842 19.3013C68.3537 19.0957 68.7149 18.8055 68.9798 18.4307C69.2446 18.0559 69.365 17.5965 69.365 17.0645C69.365 16.5688 69.2446 16.1456 68.9918 15.7708C68.751 15.396 68.4019 15.1179 67.9564 14.9123C67.511 14.7189 66.9813 14.6222 66.3673 14.6222H63.2009V19.6277H66.2709C66.8729 19.6277 67.4026 19.5068 67.8722 19.3013H67.8842ZM68.5584 28.1275C69.0761 27.9219 69.4613 27.6317 69.7021 27.2569C69.9549 26.8821 70.0753 26.4227 70.0753 25.8786C70.0753 25.3103 69.9429 24.8025 69.666 24.3673C69.3891 23.932 69.0038 23.5934 68.4982 23.3637C67.9926 23.134 67.3906 23.0131 66.7044 23.0131H63.1889V28.4418H66.596C67.3786 28.4418 68.0287 28.333 68.5464 28.1275H68.5584Z" fill="url(#paint2_linear_94_5087)"/>
<path d="M78.5509 13.667C78.1537 13.4373 77.8166 13.1471 77.5758 12.7723C77.3229 12.3975 77.2026 11.9864 77.2026 11.5149C77.2026 11.0433 77.3229 10.6443 77.5758 10.2574C77.8286 9.87053 78.1537 9.56826 78.5509 9.33854C78.9482 9.10882 79.4057 9 79.8873 9C80.3689 9 80.8143 9.10882 81.2237 9.33854C81.633 9.56826 81.958 9.87053 82.1988 10.2574C82.4396 10.6443 82.56 11.0554 82.56 11.5149C82.56 11.9743 82.4396 12.3975 82.1988 12.7723C81.958 13.1471 81.633 13.4494 81.2237 13.667C80.8143 13.8967 80.3689 14.0055 79.8873 14.0055C79.4057 14.0055 78.9482 13.8967 78.5509 13.667ZM77.3229 16.0005H82.4757V32.6856H77.3229V16.0005Z" fill="url(#paint3_linear_94_5087)"/>
<path d="M84.9918 29.7234L92.7812 20.1476V20.0267H85.2808V16.0005H98.9212V19.2771L91.6977 28.5385V28.6353H99.1981V32.6857H84.9918V29.7234Z" fill="url(#paint4_linear_94_5087)"/>
<path d="M113.272 15.6499C112.995 15.263 112.61 14.9607 112.104 14.7672C111.599 14.5617 110.997 14.465 110.299 14.465C109.6 14.465 109.034 14.5617 108.553 14.7431C108.071 14.9244 107.71 15.1904 107.469 15.5169C107.229 15.8554 107.108 16.2302 107.108 16.6413C107.084 17.2942 107.361 17.8141 107.915 18.201C108.481 18.5879 109.299 18.9023 110.395 19.1441L112.321 19.5793C114.536 20.0751 116.21 20.8609 117.353 21.9491C118.497 23.0373 119.075 24.464 119.087 26.2292C119.087 27.6317 118.738 28.8408 118.052 29.8443C117.366 30.8478 116.354 31.6217 115.03 32.1536C113.706 32.6856 112.141 32.9516 110.323 32.9516C108.444 32.9516 106.831 32.6856 105.471 32.1053C104.11 31.537 103.063 30.6786 102.304 29.5541C101.546 28.4297 101.161 27.0272 101.125 25.3466H106.145C106.181 26.0478 106.386 26.6524 106.723 27.1481C107.06 27.6438 107.542 28.0065 108.131 28.2484C108.733 28.4902 109.432 28.6111 110.238 28.6111C110.973 28.6111 111.611 28.5143 112.141 28.3088C112.67 28.1033 113.08 27.8252 113.344 27.4625C113.621 27.0997 113.766 26.6887 113.778 26.2171C113.778 25.7939 113.633 25.4312 113.393 25.1169C113.14 24.8025 112.755 24.5365 112.237 24.3189C111.719 24.1012 111.033 23.8957 110.19 23.7023L107.867 23.1461C105.892 22.6866 104.363 21.9491 103.304 20.9456C102.244 19.9421 101.715 18.6242 101.727 16.9919C101.727 15.6378 102.076 14.4408 102.81 13.401C103.545 12.3612 104.568 11.5511 105.868 10.9829C107.168 10.4146 108.661 10.1244 110.335 10.1244C112.008 10.1244 113.489 10.4146 114.765 10.9829C116.029 11.5511 117.016 12.3733 117.715 13.4131C118.413 14.465 118.774 15.674 118.774 17.0282H113.766C113.718 16.4841 113.549 16.0247 113.272 15.6257V15.6499Z" fill="url(#paint5_linear_94_5087)"/>
<path d="M124.204 31.9239C122.94 31.2106 121.976 30.195 121.314 28.9013C120.652 27.6076 120.315 26.1083 120.315 24.3914C120.315 22.6746 120.652 21.1874 121.326 19.8937C122 18.5879 122.964 17.5844 124.216 16.871C125.468 16.1577 126.949 15.795 128.646 15.795C130.151 15.795 131.475 16.073 132.619 16.6171C133.775 17.1612 134.666 17.9471 135.304 18.9506C135.942 19.9542 136.279 21.139 136.327 22.4932H131.487C131.415 21.9249 131.259 21.4413 131.018 21.0302C130.777 20.6191 130.464 20.3048 130.067 20.0751C129.669 19.8453 129.224 19.7365 128.73 19.7244C128.092 19.7244 127.526 19.9179 127.057 20.2685C126.587 20.6191 126.214 21.139 125.949 21.8403C125.684 22.5295 125.552 23.3637 125.552 24.331C125.552 25.2982 125.684 26.1688 125.937 26.8579C126.202 27.5471 126.563 28.0791 127.045 28.4418C127.514 28.8045 128.08 28.9859 128.73 28.9738C129.224 28.9738 129.657 28.8771 130.043 28.6594C130.428 28.4418 130.753 28.1275 131.006 27.7285C131.259 27.3295 131.415 26.8338 131.475 26.2413H136.315C136.267 27.5955 135.918 28.7804 135.292 29.796C134.666 30.8116 133.775 31.6096 132.631 32.1657C131.499 32.7219 130.163 33 128.646 33C126.937 33 125.444 32.6373 124.192 31.9239H124.204Z" fill="url(#paint6_linear_94_5087)"/>
<path d="M147.367 25.6972C147.235 25.6972 147.054 25.7214 146.813 25.7335C145.898 25.7698 145.104 25.8181 144.442 25.8907C143.779 25.9511 143.25 26.1567 142.876 26.5073C142.503 26.8579 142.299 27.2932 142.299 27.8252C142.299 28.1879 142.395 28.5023 142.575 28.7562C142.756 29.0101 143.009 29.2156 143.334 29.3486C143.659 29.4816 144.032 29.5542 144.454 29.5421C145.019 29.5421 145.549 29.4454 146.043 29.2035C146.524 28.9738 146.91 28.6353 147.186 28.2C147.463 27.7647 147.596 27.2932 147.596 26.7612L147.548 21.3083C147.548 20.9214 147.463 20.5829 147.283 20.3048C147.114 20.0267 146.849 19.8091 146.5 19.6761C146.151 19.5431 145.742 19.4705 145.272 19.4705C144.586 19.4705 144.044 19.6156 143.623 19.9179C143.201 20.2202 142.949 20.6312 142.84 21.1753H138.001C138.085 20.1597 138.422 19.2529 139.012 18.4307C139.602 17.6086 140.432 16.9678 141.516 16.5083C142.6 16.0489 143.876 15.8071 145.381 15.8071C146.777 15.8071 148.029 16.0247 149.137 16.4479C150.244 16.871 151.111 17.5118 151.749 18.3582C152.387 19.2045 152.7 20.2202 152.712 21.393V32.7098H147.849V30.3884H147.728C147.271 31.2348 146.633 31.8877 145.826 32.335C145.019 32.7824 144.032 33 142.876 32.9879C141.805 32.9879 140.854 32.8186 140.035 32.4559C139.217 32.0932 138.566 31.537 138.097 30.7995C137.627 30.062 137.399 29.1431 137.399 28.067C137.399 26.338 137.964 25.0564 139.096 24.2464C140.228 23.4363 141.709 22.9647 143.551 22.8438C144.056 22.8076 144.598 22.7834 145.176 22.7592C145.742 22.735 146.296 22.7108 146.813 22.6746C147.138 22.6746 147.463 22.6504 147.776 22.6383L147.813 25.6851C147.644 25.6851 147.5 25.7093 147.367 25.7214V25.6972Z" fill="url(#paint7_linear_94_5087)"/>
<path d="M155.108 32.6856V16.0005H160.008V19.0232H160.177C160.55 18.0075 161.188 17.2096 162.079 16.6413C162.97 16.073 164.017 15.7829 165.233 15.7829C166.449 15.7829 167.4 16.0368 168.267 16.5567C169.134 17.0766 169.808 17.802 170.29 18.7572C170.759 19.7002 171 20.8005 171 22.0337V32.6856H165.847V23.0373C165.847 22.4206 165.739 21.8886 165.534 21.4413C165.33 20.9939 165.017 20.6433 164.607 20.4015C164.198 20.1597 163.704 20.0267 163.126 20.0267C162.548 20.0267 162.055 20.1476 161.621 20.4015C161.188 20.6554 160.863 21.006 160.622 21.4776C160.393 21.9491 160.273 22.4932 160.273 23.134V32.6856H155.108Z" fill="url(#paint8_linear_94_5087)"/>
<defs>
<linearGradient id="paint0_linear_94_5087" x1="5" y1="21.0025" x2="37" y2="21.0025" gradientUnits="userSpaceOnUse">
<stop stop-color="#024FE2"/>
<stop offset="1" stop-color="#5A8DED"/>
</linearGradient>
<linearGradient id="paint1_linear_94_5087" x1="21.0479" y1="21.5064" x2="33.0109" y2="32.5571" gradientUnits="userSpaceOnUse">
<stop stop-color="#D9E5FB"/>
<stop offset="1" stop-color="#99BAFA"/>
</linearGradient>
<linearGradient id="paint2_linear_94_5087" x1="58" y1="21" x2="97.2583" y2="24.5376" gradientUnits="userSpaceOnUse">
<stop stop-color="#5A8DED"/>
<stop offset="1" stop-color="#024FE2"/>
</linearGradient>
<linearGradient id="paint3_linear_94_5087" x1="58" y1="21" x2="97.2583" y2="24.5376" gradientUnits="userSpaceOnUse">
<stop stop-color="#5A8DED"/>
<stop offset="1" stop-color="#024FE2"/>
</linearGradient>
<linearGradient id="paint4_linear_94_5087" x1="58" y1="21" x2="97.2583" y2="24.5376" gradientUnits="userSpaceOnUse">
<stop stop-color="#5A8DED"/>
<stop offset="1" stop-color="#024FE2"/>
</linearGradient>
<linearGradient id="paint5_linear_94_5087" x1="58" y1="21" x2="97.2583" y2="24.5376" gradientUnits="userSpaceOnUse">
<stop stop-color="#5A8DED"/>
<stop offset="1" stop-color="#024FE2"/>
</linearGradient>
<linearGradient id="paint6_linear_94_5087" x1="58" y1="21" x2="97.2583" y2="24.5376" gradientUnits="userSpaceOnUse">
<stop stop-color="#5A8DED"/>
<stop offset="1" stop-color="#024FE2"/>
</linearGradient>
<linearGradient id="paint7_linear_94_5087" x1="58" y1="21" x2="97.2583" y2="24.5376" gradientUnits="userSpaceOnUse">
<stop stop-color="#5A8DED"/>
<stop offset="1" stop-color="#024FE2"/>
</linearGradient>
<linearGradient id="paint8_linear_94_5087" x1="58" y1="21" x2="97.2583" y2="24.5376" gradientUnits="userSpaceOnUse">
<stop stop-color="#5A8DED"/>
<stop offset="1" stop-color="#024FE2"/>
</linearGradient>
</defs>
</svg>
