<svg width="42" height="42" viewBox="0 0 42 42" fill="none" xmlns="http://www.w3.org/2000/svg">
<path d="M14.0915 20.208C14.4483 17.0266 17.0266 14.4433 20.208 14.0915C24.2439 13.6391 27.6967 16.6698 27.948 20.5498C27.9631 20.8061 28.1892 21.0021 28.4506 21.0021H36.4971C36.7785 21.0021 37.0097 20.7709 36.9997 20.4895C36.7182 11.5283 29.0286 4.40148 19.8613 5.03977C11.9756 5.5876 5.59263 11.9756 5.03977 19.8613C4.40148 29.0286 11.5283 36.7182 20.4895 37.0047C20.7709 37.0148 21.0021 36.7836 21.0021 36.5021V28.4556C21.0021 28.1942 20.8061 27.9731 20.5498 27.953C16.6648 27.7017 13.6391 24.2489 14.0915 20.2131V20.208Z" fill="url(#paint0_linear_94_5088)"/>
<path d="M32.5003 28.051H29.3755C28.6423 28.051 28.0457 27.4541 28.0457 26.7257V21.556C28.0457 21.2778 27.8182 21.0502 27.5401 21.0502H21.5535C21.2754 21.0502 21.0479 21.2778 21.0479 21.556V27.5451C21.0479 27.8234 21.2754 28.051 21.5535 28.051H26.721C27.4541 28.051 28.0508 28.6479 28.0508 29.3813V32.5074C28.0508 32.7856 28.2783 33.0133 28.5564 33.0133H32.5053C32.7834 33.0133 33.0109 32.7856 33.0109 32.5074V32.0724V28.5568C33.0109 28.2786 32.7834 28.051 32.5053 28.051H32.5003Z" fill="url(#paint1_linear_94_5088)" fill-opacity="0.8"/>
<defs>
<linearGradient id="paint0_linear_94_5088" x1="5" y1="21.0025" x2="37" y2="21.0025" gradientUnits="userSpaceOnUse">
<stop stop-color="#024FE2"/>
<stop offset="1" stop-color="#5A8DED"/>
</linearGradient>
<linearGradient id="paint1_linear_94_5088" x1="21.0479" y1="21.5064" x2="33.0109" y2="32.5571" gradientUnits="userSpaceOnUse">
<stop stop-color="#D9E5FB"/>
<stop offset="1" stop-color="#99BAFA"/>
</linearGradient>
</defs>
</svg>
